<?xml version="1.0" encoding="UTF-8"?>
<svg id="_图层_1" data-name="图层 1" xmlns="http://www.w3.org/2000/svg" xmlns:xlink="http://www.w3.org/1999/xlink" viewBox="0 0 168.03 254.01">
  <defs>
    <style>
      .cls-1 {
        fill: url(#_未命名的渐变_253-3);
      }

      .cls-2 {
        fill: url(#_未命名的渐变_233-3);
      }

      .cls-3 {
        fill: url(#_未命名的渐变_233);
      }

      .cls-4 {
        fill: url(#_未命名的渐变_233-2);
      }

      .cls-5 {
        fill: url(#_未命名的渐变_253);
      }

      .cls-6 {
        fill: url(#_未命名的渐变_253-2);
      }
    </style>
    <linearGradient id="_未命名的渐变_233" data-name="未命名的渐变 233" x1="0" y1="197" x2="168.03" y2="197" gradientUnits="userSpaceOnUse">
      <stop offset="0" stop-color="#c1dc87"/>
      <stop offset=".5" stop-color="#e2eec9"/>
      <stop offset="1" stop-color="#c1dc87"/>
    </linearGradient>
    <linearGradient id="_未命名的渐变_233-2" data-name="未命名的渐变 233" y1="57.01" y2="57.01" xlink:href="#_未命名的渐变_233"/>
    <linearGradient id="_未命名的渐变_233-3" data-name="未命名的渐变 233" y1="150.67" y2="150.67" xlink:href="#_未命名的渐变_233"/>
    <linearGradient id="_未命名的渐变_253" data-name="未命名的渐变 253" x1="0" y1="57.01" x2="168.03" y2="57.01" gradientUnits="userSpaceOnUse">
      <stop offset="0" stop-color="#55952e"/>
      <stop offset=".5" stop-color="#8bc347"/>
      <stop offset="1" stop-color="#55952e"/>
    </linearGradient>
    <linearGradient id="_未命名的渐变_253-2" data-name="未命名的渐变 253" y1="103.35" y2="103.35" xlink:href="#_未命名的渐变_253"/>
    <linearGradient id="_未命名的渐变_253-3" data-name="未命名的渐变 253" y1="149.68" y2="149.68" xlink:href="#_未命名的渐变_253"/>
  </defs>
  <path class="cls-3" d="M168.03,232.67c0-11.79-15.67-26.01-35-31.76l-98.03-29.16C15.67,166,0,151.78,0,139.99v21.35c0,11.79,15.67,26.01,35,31.76l98.03,29.16c19.33,5.75,35,19.97,35,31.76v-21.35Z"/>
  <path class="cls-4" d="M168.03,92.67c0-11.79-15.67-26.01-35-31.76L35,31.76C15.67,26.01,0,11.79,0,0V21.35c0,11.79,15.67,26.01,35,31.76l98.03,29.16c19.33,5.75,35,19.97,35,31.76v-21.35Z"/>
  <path class="cls-2" d="M168.03,186.33c0-11.79-15.67-26.01-35-31.76l-98.03-29.16C15.67,119.66,0,105.45,0,93.66v21.35c0,11.79,15.67,26.01,35,31.76l98.03,29.16c19.33,5.75,35,19.97,35,31.76v-21.35Z"/>
  <path class="cls-5" d="M168.03,21.35c0,11.79-15.67,26.01-35,31.76l-98.03,29.16C15.67,88.01,0,102.23,0,114.02v-21.35c0-11.79,15.67-26.01,35-31.76l98.03-29.16C152.36,26.01,168.03,11.79,168.03,0V21.35Z"/>
  <path class="cls-6" d="M168.03,67.68c0,11.79-15.67,26.01-35,31.76l-98.03,29.16C15.67,134.35,0,148.57,0,160.36v-21.35c0-11.79,15.67-26.01,35-31.76l98.03-29.16c19.33-5.75,35-19.97,35-31.76v21.35Z"/>
  <path class="cls-1" d="M168.03,114.02c0,11.79-15.67,26.01-35,31.76l-98.03,29.16C15.67,180.69,0,194.9,0,206.69v-21.35c0-11.79,15.67-26.01,35-31.76l98.03-29.16c19.33-5.75,35-19.97,35-31.76v21.35Z"/>
</svg>